PathFileType	4	(X/Y/Z) abd_2kg_1.trc																										
DataRate	CameraRate	NumFrames	NumMarkers	Units	OrigDataRate	OrigDataStartFrame	OrigNumFrames																					
100	100	43	9	mm	100	1	829																					
Frame#	Time	gu			centelbow			EpL			centpxt8			centijc7			ij			ts			aa			ai		
		X1	Y1	Z1	X2	Y2	Z2	X3	Y3	Z3	X4	Y4	Z4	X5	Y5	Z5	X6	Y6	Z6	X7	Y7	Z7	X8	Y8	Z8	X9	Y9	Z9  
0	0	-94.794	-15.005	160.477	-139.867	-256.699	183.645	-146.451	-248.471	214.114	-46.816	-153.158	-8.669	-46.816	31.938	-8.669	0	0	0	-130.495	25.926	40.553	-124.833	21.028	159.586	-144.994	-86.652	41.832
1	0.01	-94.753	-15.018	160.385	-139.857	-256.705	183.562	-146.437	-248.475	214.031	-46.816	-153.158	-8.669	-46.816	31.938	-8.669	0	0	0	-130.558	25.984	40.547	-124.886	21.066	159.578	-145.064	-86.593	41.809
2	0.02	-94.823	-15.004	160.318	-139.961	-256.685	183.501	-146.536	-248.454	213.972	-46.816	-153.158	-8.669	-46.816	31.938	-8.669	0	0	0	-130.669	26.028	40.616	-124.994	21.09	159.646	-145.176	-86.55	41.86
3	0.03	-94.995	-14.968	160.364	-140.159	-256.644	183.541	-146.731	-248.414	214.012	-46.816	-153.158	-8.669	-46.816	31.938	-8.669	0	0	0	-130.734	25.976	40.769	-125.072	21.027	159.799	-145.25	-86.601	42.002
4	0.04	-95.07	-14.957	160.456	-140.248	-256.632	183.621	-146.822	-248.402	214.091	-46.816	-153.158	-8.669	-46.816	31.938	-8.669	0	0	0	-130.638	25.836	40.836	-124.981	20.883	159.867	-145.178	-86.737	42.065
5	0.05	-95.015	-14.979	160.471	-140.197	-256.655	183.619	-146.774	-248.426	214.09	-46.816	-153.158	-8.669	-46.816	31.938	-8.669	0	0	0	-130.449	25.68	40.723	-124.774	20.719	159.752	-145.011	-86.89	41.947
6	0.06	-95.022	-14.989	160.439	-140.209	-256.665	183.569	-146.788	-248.438	214.04	-46.816	-153.158	-8.669	-46.816	31.938	-8.669	0	0	0	-130.409	25.584	40.585	-124.715	20.608	159.613	-144.979	-86.985	41.799
7	0.07	-95.146	-14.975	160.48	-140.351	-256.65	183.591	-146.934	-248.425	214.062	-46.816	-153.158	-8.669	-46.816	31.938	-8.669	0	0	0	-130.585	25.568	40.614	-124.894	20.574	159.641	-145.152	-87.002	41.81
8	0.08	-95.229	-14.987	160.566	-140.462	-256.658	183.664	-147.043	-248.433	214.135	-46.816	-153.158	-8.669	-46.816	31.938	-8.669	0	0	0	-130.774	25.622	40.739	-125.094	20.612	159.767	-145.333	-86.949	41.919
9	0.09	-95.187	-15.04	160.571	-140.437	-256.708	183.664	-147.014	-248.484	214.136	-46.816	-153.158	-8.669	-46.816	31.938	-8.669	0	0	0	-130.833	25.728	40.777	-125.155	20.712	159.804	-145.377	-86.845	41.949
10	0.1	-95.116	-15.064	160.462	-140.368	-256.732	183.555	-146.941	-248.509	214.028	-46.816	-153.158	-8.669	-46.816	31.938	-8.669	0	0	0	-130.827	25.819	40.721	-125.145	20.804	159.748	-145.361	-86.755	41.894
11	0.11	-95.131	-15.003	160.338	-140.375	-256.671	183.442	-146.946	-248.448	213.915	-46.816	-153.158	-8.669	-46.816	31.938	-8.669	0	0	0	-130.853	25.842	40.688	-125.179	20.831	159.716	-145.397	-86.731	41.865
12	0.12	-95.225	-14.919	160.311	-140.461	-256.586	183.445	-147.033	-248.358	213.917	-46.816	-153.158	-8.669	-46.816	31.938	-8.669	0	0	0	-130.902	25.814	40.695	-125.253	20.809	159.724	-145.471	-86.756	41.876
13	0.13	-95.324	-14.924	160.347	-140.562	-256.586	183.526	-147.138	-248.352	213.995	-46.816	-153.158	-8.669	-46.816	31.938	-8.669	0	0	0	-130.924	25.737	40.664	-125.306	20.742	159.695	-145.52	-86.829	41.852
14	0.14	-95.387	-15.029	160.316	-140.641	-256.684	183.54	-147.222	-248.443	214.006	-46.816	-153.158	-8.669	-46.816	31.938	-8.669	0	0	0	-130.942	25.633	40.543	-125.34	20.65	159.575	-145.555	-86.931	41.74
15	0.15	-95.39	-15.129	160.182	-140.659	-256.778	183.438	-147.243	-248.532	213.902	-46.816	-153.158	-8.669	-46.816	31.938	-8.669	0	0	0	-130.967	25.606	40.344	-125.364	20.627	159.376	-145.585	-86.958	41.547
16	0.16	-95.314	-15.15	160.042	-140.584	-256.797	183.314	-147.172	-248.549	213.776	-46.816	-153.158	-8.669	-46.816	31.938	-8.669	0	0	0	-130.915	25.688	40.161	-125.307	20.707	159.193	-145.528	-86.876	41.362
17	0.17	-95.177	-15.167	159.984	-140.462	-256.81	183.271	-147.054	-248.558	213.732	-46.816	-153.158	-8.669	-46.816	31.938	-8.669	0	0	0	-130.742	25.752	40.107	-125.147	20.771	159.14	-145.359	-86.812	41.306
18	0.18	-95.029	-15.258	160.006	-140.362	-256.888	183.329	-146.953	-248.631	213.788	-46.816	-153.158	-8.669	-46.816	31.938	-8.669	0	0	0	-130.57	25.704	40.182	-125.012	20.73	159.217	-145.211	-86.856	41.384
19	0.19	-94.908	-15.355	160.079	-140.281	-256.973	183.457	-146.871	-248.707	213.914	-46.816	-153.158	-8.669	-46.816	31.938	-8.669	0	0	0	-130.522	25.611	40.306	-125.01	20.649	159.343	-145.194	-86.945	41.515
20	0.2	-94.809	-15.412	160.192	-140.183	-257.024	183.627	-146.778	-248.75	214.081	-46.816	-153.158	-8.669	-46.816	31.938	-8.669	0	0	0	-130.537	25.535	40.429	-125.059	20.58	159.468	-145.237	-87.017	41.642
21	0.21	-94.721	-15.497	160.305	-140.078	-257.109	183.779	-146.678	-248.83	214.231	-46.816	-153.158	-8.669	-46.816	31.938	-8.669	0	0	0	-130.486	25.463	40.484	-125.018	20.501	159.523	-145.211	-87.086	41.691
22	0.22	-94.669	-15.603	160.368	-140.017	-257.214	183.863	-146.62	-248.932	214.313	-46.816	-153.158	-8.669	-46.816	31.938	-8.669	0	0	0	-130.377	25.445	40.41	-124.89	20.469	159.448	-145.114	-87.103	41.608
23	0.23	-94.662	-15.61	160.393	-140.006	-257.22	183.903	-146.607	-248.937	214.353	-46.816	-153.158	-8.669	-46.816	31.938	-8.669	0	0	0	-130.309	25.555	40.291	-124.786	20.572	159.327	-145.042	-86.993	41.485
24	0.24	-94.629	-15.493	160.388	-139.962	-257.103	183.924	-146.556	-248.818	214.375	-46.816	-153.158	-8.669	-46.816	31.938	-8.669	0	0	0	-130.301	25.713	40.268	-124.753	20.733	159.303	-145.031	-86.835	41.467
25	0.25	-94.522	-15.381	160.353	-139.843	-256.991	183.917	-146.424	-248.705	214.371	-46.816	-153.158	-8.669	-46.816	31.938	-8.669	0	0	0	-130.309	25.765	40.347	-124.761	20.791	159.382	-145.058	-86.781	41.554
26	0.26	-94.404	-15.373	160.353	-139.735	-256.979	183.929	-146.303	-248.693	214.386	-46.816	-153.158	-8.669	-46.816	31.938	-8.669	0	0	0	-130.325	25.714	40.434	-124.785	20.737	159.469	-145.109	-86.828	41.639
27	0.27	-94.366	-15.41	160.435	-139.717	-257.014	183.997	-146.281	-248.73	214.455	-46.816	-153.158	-8.669	-46.816	31.938	-8.669	0	0	0	-130.367	25.673	40.471	-124.835	20.685	159.506	-145.178	-86.865	41.666
28	0.28	-94.426	-15.409	160.548	-139.796	-257.012	184.08	-146.365	-248.73	214.538	-46.816	-153.158	-8.669	-46.816	31.938	-8.669	0	0	0	-130.436	25.659	40.474	-124.909	20.657	159.509	-145.253	-86.879	41.655
29	0.29	-94.542	-15.379	160.637	-139.947	-256.978	184.144	-146.521	-248.697	214.601	-46.816	-153.158	-8.669	-46.816	31.938	-8.669	0	0	0	-130.469	25.6	40.515	-124.949	20.582	159.55	-145.291	-86.937	41.681
30	0.3	-94.658	-15.366	160.698	-140.096	-256.96	184.193	-146.675	-248.679	214.649	-46.816	-153.158	-8.669	-46.816	31.938	-8.669	0	0	0	-130.427	25.494	40.62	-124.92	20.457	159.654	-145.26	-87.041	41.766
31	0.31	-94.749	-15.376	160.735	-140.181	-256.971	184.233	-146.763	-248.689	214.688	-46.816	-153.158	-8.669	-46.816	31.938	-8.669	0	0	0	-130.387	25.44	40.712	-124.898	20.393	159.747	-145.23	-87.094	41.847
32	0.32	-94.787	-15.368	160.719	-140.183	-256.968	184.228	-146.771	-248.685	214.682	-46.816	-153.158	-8.669	-46.816	31.938	-8.669	0	0	0	-130.405	25.516	40.732	-124.935	20.474	159.768	-145.247	-87.019	41.87
33	0.33	-94.716	-15.334	160.607	-140.08	-256.941	184.117	-146.674	-248.658	214.569	-46.816	-153.158	-8.669	-46.816	31.938	-8.669	0	0	0	-130.405	25.652	40.668	-124.951	20.618	159.704	-145.232	-86.885	41.81
34	0.34	-94.561	-15.337	160.431	-139.906	-256.949	183.917	-146.506	-248.669	214.369	-46.816	-153.158	-8.669	-46.816	31.938	-8.669	0	0	0	-130.345	25.71	40.543	-124.899	20.67	159.58	-145.148	-86.83	41.678
35	0.35	-94.455	-15.41	160.298	-139.78	-257.028	183.759	-146.388	-248.751	214.21	-46.816	-153.158	-8.669	-46.816	31.938	-8.669	0	0	0	-130.272	25.651	40.447	-124.836	20.596	159.484	-145.051	-86.892	41.564
36	0.36	-94.43	-15.495	160.275	-139.726	-257.119	183.735	-146.341	-248.842	214.185	-46.816	-153.158	-8.669	-46.816	31.938	-8.669	0	0	0	-130.183	25.558	40.438	-124.766	20.494	159.475	-144.948	-86.987	41.544
37	0.37	-94.377	-15.518	160.314	-139.639	-257.146	183.792	-146.26	-248.867	214.24	-46.816	-153.158	-8.669	-46.816	31.938	-8.669	0	0	0	-130.065	25.52	40.453	-124.668	20.461	159.491	-144.831	-87.025	41.561
38	0.38	-94.258	-15.5	160.319	-139.498	-257.132	183.806	-146.123	-248.851	214.252	-46.816	-153.158	-8.669	-46.816	31.938	-8.669	0	0	0	-130.024	25.523	40.368	-124.63	20.474	159.407	-144.792	-87.022	41.486
39	0.39	-94.112	-15.519	160.268	-139.356	-257.152	183.739	-145.986	-248.872	214.184	-46.816	-153.158	-8.669	-46.816	31.938	-8.669	0	0	0	-130.106	25.493	40.16	-124.7	20.446	159.198	-144.873	-87.052	41.281
40	0.4	-93.934	-15.586	160.23	-139.206	-257.216	183.677	-145.843	-248.937	214.121	-46.816	-153.158	-8.669	-46.816	31.938	-8.669	0	0	0	-130.147	25.419	39.977	-124.736	20.371	159.015	-144.917	-87.125	41.098
41	0.41	-93.79	-15.641	160.255	-139.079	-257.269	183.69	-145.725	-248.99	214.132	-46.816	-153.158	-8.669	-46.816	31.938	-8.669	0	0	0	-130.037	25.353	39.965	-124.642	20.308	159.004	-144.816	-87.19	41.087
42	0.42	-93.782	-15.642	160.289	-139.055	-257.273	183.721	-145.71	-248.993	214.16	-46.816	-153.158	-8.669	-46.816	31.938	-8.669	0	0	0	-129.853	25.339	40.071	-124.482	20.299	159.111	-144.633	-87.203	41.195
